# Blender v2.76 (sub 0) OBJ File: 'gravity2.blend'
# www.blender.org
mtllib on.mtl
o Text_h
v 0.551422 0.327384 -0.796447
v 0.459422 0.327384 -0.796447
v 0.459422 0.327384 -0.268447
v -0.002578 0.327384 -0.796447
v -0.080578 0.327384 -0.796447
v -0.080578 0.327384 -0.114447
v 0.011422 0.327384 -0.114447
v 0.011422 0.327384 -0.639447
v 0.467422 0.327384 -0.114447
v 0.551422 0.327384 -0.114447
v -0.932578 0.327384 -0.455447
v -0.929674 0.327384 -0.409697
v -0.921101 0.327384 -0.365285
v -0.907062 0.327384 -0.322712
v -0.887763 0.327384 -0.282484
v -0.863408 0.327384 -0.245102
v -0.834203 0.327384 -0.211072
v -0.800351 0.327384 -0.180895
v -0.762059 0.327384 -0.155076
v -0.719531 0.327384 -0.134119
v -0.672971 0.327384 -0.118525
v -0.622585 0.327384 -0.108800
v -0.568578 0.327384 -0.105447
v -0.512791 0.327384 -0.108819
v -0.461036 0.327384 -0.118595
v -0.413468 0.327384 -0.134259
v -0.370244 0.327384 -0.155299
v -0.331520 0.327384 -0.181199
v -0.297453 0.327384 -0.211447
v -0.268197 0.327384 -0.245528
v -0.243911 0.327384 -0.282928
v -0.224750 0.327384 -0.323134
v -0.210869 0.327384 -0.365632
v -0.202427 0.327384 -0.409907
v -0.199578 0.327384 -0.455447
v -0.202502 0.327384 -0.502246
v -0.211138 0.327384 -0.547345
v -0.225281 0.327384 -0.590290
v -0.244726 0.327384 -0.630632
v -0.269268 0.327384 -0.667918
v -0.298703 0.327384 -0.701697
v -0.332825 0.327384 -0.731517
v -0.371429 0.327384 -0.756928
v -0.414312 0.327384 -0.777478
v -0.461267 0.327384 -0.792715
v -0.512091 0.327384 -0.802189
v -0.566578 0.327384 -0.805447
v -0.620204 0.327384 -0.802170
v -0.670425 0.327384 -0.792646
v -0.717000 0.327384 -0.777337
v -0.759689 0.327384 -0.756706
v -0.798253 0.327384 -0.731214
v -0.832453 0.327384 -0.701322
v -0.862048 0.327384 -0.667492
v -0.886800 0.327384 -0.630187
v -0.906468 0.327384 -0.589869
v -0.920814 0.327384 -0.546998
v -0.929597 0.327384 -0.502036
v -0.831578 0.327384 -0.455447
v -0.829266 0.327384 -0.492073
v -0.822504 0.327384 -0.526789
v -0.811546 0.327384 -0.559353
v -0.796652 0.327384 -0.589521
v -0.778076 0.327384 -0.617050
v -0.756078 0.327384 -0.641697
v -0.730912 0.327384 -0.663219
v -0.702837 0.327384 -0.681373
v -0.672109 0.327384 -0.695915
v -0.638985 0.327384 -0.706604
v -0.603722 0.327384 -0.713196
v -0.566578 0.327384 -0.715447
v -0.529203 0.327384 -0.713196
v -0.493749 0.327384 -0.706604
v -0.460468 0.327384 -0.695915
v -0.429615 0.327384 -0.681373
v -0.401442 0.327384 -0.663219
v -0.376203 0.327384 -0.641697
v -0.354151 0.327384 -0.617050
v -0.335541 0.327384 -0.589521
v -0.320625 0.327384 -0.559353
v -0.309656 0.327384 -0.526789
v -0.302890 0.327384 -0.492073
v -0.300578 0.327384 -0.455447
v -0.302890 0.327384 -0.419031
v -0.309656 0.327384 -0.384451
v -0.320624 0.327384 -0.351962
v -0.335541 0.327384 -0.321817
v -0.354151 0.327384 -0.294269
v -0.376203 0.327384 -0.269572
v -0.401442 0.327384 -0.247979
v -0.429615 0.327384 -0.229743
v -0.460468 0.327384 -0.215119
v -0.493749 0.327384 -0.204359
v -0.529203 0.327384 -0.197717
v -0.566578 0.327384 -0.195447
v -0.603722 0.327384 -0.197717
v -0.638985 0.327384 -0.204359
v -0.672109 0.327384 -0.215119
v -0.702837 0.327384 -0.229743
v -0.730912 0.327384 -0.247979
v -0.756078 0.327384 -0.269572
v -0.778076 0.327384 -0.294269
v -0.796652 0.327384 -0.321817
v -0.811546 0.327384 -0.351962
v -0.822504 0.327384 -0.384451
v -0.829266 0.327384 -0.419031
vn 0.000000 1.000000 0.000000
vn 0.000000 1.000000 -0.000100
usemtl None
s off
f 6//1 4//1 5//1
f 6//1 8//1 4//1
f 8//1 3//1 4//1
f 3//1 1//1 2//1
f 3//1 10//1 1//1
f 6//1 7//1 8//1
f 9//1 3//1 8//1
f 9//1 10//1 3//1
f 48//1 46//1 47//1
f 48//1 45//1 46//1
f 49//1 45//1 48//1
f 49//1 44//1 45//1
f 50//1 44//1 49//1
f 50//1 43//1 44//1
f 51//1 43//1 50//1
f 51//1 42//1 43//1
f 52//1 42//1 51//1
f 52//1 41//1 42//1
f 53//1 71//1 52//1
f 71//1 41//1 52//1
f 53//2 70//2 71//2
f 72//2 41//2 71//2
f 73//1 41//1 72//1
f 53//1 69//1 70//1
f 74//1 41//1 73//1
f 53//1 68//1 69//1
f 74//1 40//1 41//1
f 54//1 68//1 53//1
f 75//1 40//1 74//1
f 54//1 67//1 68//1
f 76//1 40//1 75//1
f 54//1 66//1 67//1
f 76//1 39//1 40//1
f 55//1 66//1 54//1
f 77//1 39//1 76//1
f 55//1 65//1 66//1
f 78//1 39//1 77//1
f 55//1 64//1 65//1
f 78//1 38//1 39//1
f 56//1 64//1 55//1
f 79//1 38//1 78//1
f 56//1 63//1 64//1
f 79//1 37//1 38//1
f 57//1 63//1 56//1
f 80//1 37//1 79//1
f 57//1 62//1 63//1
f 81//1 37//1 80//1
f 57//1 61//1 62//1
f 81//1 36//1 37//1
f 58//1 61//1 57//1
f 82//1 36//1 81//1
f 58//1 60//1 61//1
f 82//1 35//1 36//1
f 11//1 60//1 58//1
f 83//1 35//1 82//1
f 11//1 59//1 60//1
f 12//1 59//1 11//1
f 12//1 106//1 59//1
f 84//1 35//1 83//1
f 84//1 34//1 35//1
f 12//1 105//1 106//1
f 85//1 34//1 84//1
f 85//1 33//1 34//1
f 13//1 105//1 12//1
f 13//1 104//1 105//1
f 86//1 33//1 85//1
f 86//1 32//1 33//1
f 14//1 104//1 13//1
f 87//1 32//1 86//1
f 14//1 103//1 104//1
f 87//1 31//1 32//1
f 15//1 103//1 14//1
f 88//1 31//1 87//1
f 15//1 102//1 103//1
f 89//1 31//1 88//1
f 15//1 101//1 102//1
f 89//1 30//1 31//1
f 16//1 101//1 15//1
f 90//1 30//1 89//1
f 16//1 100//1 101//1
f 91//1 30//1 90//1
f 16//1 99//1 100//1
f 91//1 29//1 30//1
f 17//1 99//1 16//1
f 92//1 29//1 91//1
f 17//1 98//1 99//1
f 93//1 29//1 92//1
f 17//1 97//1 98//1
f 93//1 28//1 29//1
f 18//1 97//1 17//1
f 94//1 28//1 93//1
f 18//1 96//1 97//1
f 95//1 28//1 94//1
f 18//1 95//1 96//1
f 18//1 28//1 95//1
f 18//1 27//1 28//1
f 19//1 27//1 18//1
f 19//1 26//1 27//1
f 20//1 26//1 19//1
f 20//1 25//1 26//1
f 21//1 25//1 20//1
f 21//1 24//1 25//1
f 22//1 24//1 21//1
f 22//1 23//1 24//1
